<?xml version="1.0" encoding="utf-8"?>
<!-- Generator: Adobe Illustrator 16.0.0, SVG Export Plug-In . SVG Version: 6.00 Build 0)  -->
<!DOCTYPE svg PUBLIC "-//W3C//DTD SVG 1.1//EN" "http://www.w3.org/Graphics/SVG/1.1/DTD/svg11.dtd">
<svg version="1.1" id="flag-icon-css-us" xmlns="http://www.w3.org/2000/svg" xmlns:xlink="http://www.w3.org/1999/xlink" x="0px"
	 y="0px" width="640px" height="480px" viewBox="0 0 640 480" enable-background="new 0 0 640 480" xml:space="preserve">
<g>
	<g>
		<path fill="#BD3D44" d="M0,0h640v36.938H0V0z M0,73.875h640v36.938H0V73.875z M0,147.656h640v37.031H0V147.656z M0,221.531h640
			v36.938H0V221.531z M0,295.406h640v36.938H0V295.406z M0,369.188h640v36.938H0V369.188z M0,443.062h640V480H0V443.062z"/>
		<path fill="#FFFFFF" d="M0,36.938h640v36.938H0V36.938z M0,110.812h640v36.844H0V110.812z M0,184.594h640v36.938H0V184.594z
			 M0,258.469h640v36.938H0V258.469z M0,332.344h640v36.938H0V332.344z M0,406.125h640v36.938H0V406.125z"/>
	</g>
	<path fill="#192F5D" d="M0,0h364.781v258.469H0V0z"/>
	<path fill="#FFFFFF" d="M30.375,11.062l3.375,10.219h10.688l-8.625,6.281l3.281,10.312L30.375,31.5l-8.625,6.281l3.281-10.219
		l-8.719-6.281h10.875L30.375,11.062z M91.219,11.062L94.5,21.281h10.781l-8.719,6.281l3.281,10.312L91.219,31.5L82.5,37.781
		l3.281-10.219l-8.625-6.281h10.688L91.219,11.062z M151.969,11.062l3.375,10.219h10.594l-8.625,6.281l3.281,10.312l-8.719-6.375
		l-8.625,6.281l3.281-10.219l-8.719-6.281h10.781L151.969,11.062z M212.813,11.062l3.281,10.219h10.781l-8.719,6.281l3.375,10.312
		l-8.719-6.375l-8.719,6.281l3.375-10.219l-8.719-6.281h10.688L212.813,11.062z M273.563,11.062l3.375,10.219h10.688L279,27.562
		l3.281,10.312l-8.719-6.375l-8.625,6.281l3.281-10.219l-8.625-6.281h10.688L273.563,11.062z M334.406,11.062l3.281,10.219h10.781
		l-8.718,6.281l3.375,10.312l-8.719-6.375l-8.719,6.281l3.375-10.219l-8.719-6.281h10.781L334.406,11.062z M60.844,36.938
		l3.281,10.219h10.781l-8.719,6.281l3.188,10.219l-8.438-6.281l-8.719,6.281l3.094-10.219l-8.438-6.281h10.688L60.844,36.938z
		 M121.594,36.938l3.375,10.219h10.688l-8.719,6.281l3.375,10.219l-8.719-6.281l-8.719,6.281l3.375-10.219l-8.719-6.281h10.781
		L121.594,36.938z M182.438,36.938l3.281,10.219H196.5l-8.719,6.281l3.281,10.219l-8.625-6.281l-8.719,6.281L177,53.438
		l-8.625-6.281h10.688L182.438,36.938z M243.188,36.938l3.375,10.219h10.688l-8.719,6.281l3.375,10.219l-8.719-6.281l-8.625,6.281
		l3.281-10.219l-8.719-6.281H240L243.188,36.938z M304.031,36.938l3.281,10.219h10.781l-8.719,6.281l3.281,10.219l-8.625-6.281
		l-8.719,6.281l3.281-10.219l-8.625-6.281h10.688L304.031,36.938z M30.375,62.719l3.375,10.406h10.688l-8.625,6.281l3.281,10.219
		l-8.719-6.375l-8.625,6.375l3.281-10.312l-8.719-6.281h10.875L30.375,62.719z M91.219,62.719L94.5,73.031h10.781l-8.719,6.281
		l3.281,10.219l-8.625-6.375L82.5,89.531l3.281-10.312l-8.625-6.281h10.688L91.219,62.719z M151.969,62.719l3.375,10.312h10.594
		l-8.625,6.281l3.281,10.219l-8.719-6.375l-8.625,6.375l3.281-10.312l-8.719-6.281h10.781L151.969,62.719z M212.813,62.719
		l3.281,10.312h10.781l-8.719,6.281l3.375,10.219l-8.719-6.375l-8.719,6.375l3.375-10.312l-8.719-6.281h10.688L212.813,62.719z
		 M273.563,62.719l3.375,10.312h10.688L279,79.312l3.281,10.219l-8.719-6.375l-8.625,6.375l3.281-10.312l-8.625-6.281h10.688
		L273.563,62.719z M334.406,62.719l3.281,10.312h10.781l-8.718,6.281l3.375,10.219l-8.719-6.375l-8.719,6.375l3.375-10.312
		l-8.719-6.281h10.781L334.406,62.719z M60.844,88.594l3.281,10.219h10.781l-8.719,6.281l3.281,10.312l-8.625-6.375l-8.719,6.281
		l3.281-10.219l-8.625-6.281h10.688L60.844,88.594z M121.594,88.594l3.375,10.219h10.688l-8.719,6.281l3.375,10.312l-8.719-6.375
		l-8.719,6.281l3.375-10.219l-8.719-6.281h10.781L121.594,88.594z M182.438,88.594l3.281,10.219H196.5l-8.719,6.281l3.281,10.312
		l-8.625-6.375l-8.719,6.281L177,105.094l-8.625-6.281h10.688L182.438,88.594z M243.188,88.594l3.375,10.219h10.688l-8.625,6.281
		l3.281,10.312l-8.719-6.375l-8.625,6.281l3.281-10.219l-8.719-6.281H240L243.188,88.594z M304.031,88.594l3.281,10.219h10.781
		l-8.719,6.281l3.281,10.312l-8.625-6.375l-8.719,6.281l3.281-10.219l-8.625-6.281h10.688L304.031,88.594z M30.375,114.469
		l3.375,10.219h10.688l-8.625,6.281l3.281,10.312l-8.719-6.375l-8.625,6.281l3.281-10.219l-8.719-6.281h10.875L30.375,114.469z
		 M91.219,114.469l3.281,10.219h10.781l-8.719,6.281l3.281,10.219l-8.625-6.281l-8.719,6.281l3.281-10.219l-8.625-6.281h10.688
		L91.219,114.469z M151.969,114.469l3.375,10.219h10.594l-8.625,6.281l3.281,10.312l-8.719-6.375l-8.625,6.281l3.281-10.219
		l-8.719-6.281h10.781L151.969,114.469z M212.813,114.469l3.281,10.219h10.781l-8.719,6.281l3.375,10.312l-8.719-6.375l-8.719,6.281
		l3.375-10.219l-8.719-6.281h10.688L212.813,114.469z M273.563,114.469l3.375,10.219h10.688L279,130.969l3.281,10.312l-8.719-6.375
		l-8.625,6.281l3.281-10.219l-8.625-6.281h10.688L273.563,114.469z M334.406,114.469l3.281,10.219h10.781l-8.718,6.281l3.375,10.312
		l-8.719-6.375l-8.719,6.281l3.375-10.219l-8.719-6.281h10.781L334.406,114.469z M60.844,140.344l3.281,10.219h10.781l-8.719,6.281
		l3.281,10.219l-8.625-6.375l-8.719,6.375l3.281-10.312l-8.625-6.281h10.688L60.844,140.344z M121.594,140.344l3.375,10.219h10.688
		l-8.719,6.281l3.375,10.219l-8.719-6.375l-8.719,6.375l3.375-10.312l-8.719-6.281h10.781L121.594,140.344z M182.438,140.344
		l3.281,10.219H196.5l-8.719,6.281l3.281,10.219l-8.625-6.375l-8.719,6.375L177,156.75l-8.625-6.281h10.688L182.438,140.344z
		 M243.188,140.344l3.375,10.219h10.688l-8.625,6.281l3.281,10.219l-8.719-6.375l-8.625,6.375l3.281-10.312l-8.719-6.281H240
		L243.188,140.344z M304.031,140.344l3.281,10.219h10.781l-8.719,6.281l3.281,10.219l-8.625-6.375l-8.719,6.375l3.281-10.312
		l-8.625-6.281h10.688L304.031,140.344z M30.375,166.125l3.375,10.312h10.688l-8.625,6.281l3.281,10.125l-8.719-6.281l-8.625,6.281
		l3.281-10.219l-8.719-6.281h10.875L30.375,166.125z M91.219,166.125l3.281,10.312h10.781l-8.719,6.281l3.375,10.125l-8.719-6.281
		l-8.719,6.281l3.375-10.219l-8.719-6.281h10.688L91.219,166.125z M151.969,166.125l3.375,10.312h10.594l-8.625,6.281l3.281,10.125
		l-8.719-6.281l-8.625,6.281l3.281-10.219l-8.719-6.281h10.781L151.969,166.125z M212.813,166.125l3.281,10.312h10.781l-8.719,6.281
		l3.375,10.125l-8.719-6.281l-8.719,6.281l3.375-10.219l-8.719-6.281h10.688L212.813,166.125z M273.563,166.125l3.375,10.312h10.688
		L279,182.719l3.281,10.125l-8.719-6.281l-8.625,6.281l3.281-10.219l-8.625-6.281h10.688L273.563,166.125z M334.406,166.125
		l3.281,10.312h10.781l-8.718,6.281l3.375,10.125l-8.719-6.281l-8.719,6.281l3.375-10.219l-8.719-6.281h10.781L334.406,166.125z
		 M60.844,192l3.281,10.219h10.781l-8.719,6.281l3.281,10.312l-8.625-6.375l-8.719,6.281l3.281-10.219l-8.625-6.281h10.688
		L60.844,192z M121.594,192l3.375,10.219h10.688l-8.719,6.281l3.375,10.312l-8.719-6.375l-8.719,6.281l3.375-10.219l-8.719-6.281
		h10.781L121.594,192z M182.438,192l3.281,10.219H196.5l-8.719,6.281l3.281,10.312l-8.625-6.375l-8.719,6.281L177,208.5
		l-8.625-6.281h10.688L182.438,192z M243.188,192l3.375,10.219h10.688l-8.625,6.281l3.281,10.312l-8.719-6.375l-8.625,6.281
		l3.281-10.219l-8.719-6.281H240L243.188,192z M304.031,192l3.281,10.219h10.781l-8.719,6.281l3.281,10.312l-8.625-6.375
		l-8.719,6.281l3.281-10.219l-8.625-6.281h10.688L304.031,192z M30.375,217.875l3.375,10.219h10.688l-8.625,6.281l3.281,10.219
		l-8.719-6.281l-8.625,6.281l3.281-10.312L16.313,228h10.875L30.375,217.875z M91.219,217.875l3.281,10.219h10.781l-8.719,6.281
		l3.375,10.219l-8.719-6.281l-8.719,6.281l3.375-10.312L77.156,228h10.688L91.219,217.875z M151.969,217.875l3.375,10.219h10.594
		l-8.438,6.281l3.281,10.219l-8.719-6.281l-8.625,6.281l3.281-10.312L138,228h10.781L151.969,217.875z M212.813,217.875
		l3.281,10.219h10.781l-8.719,6.281l3.375,10.219l-8.719-6.281l-8.719,6.281l3.375-10.312L198.75,228h10.688L212.813,217.875z
		 M273.563,217.875l3.375,10.219h10.688L279,234.375l3.281,10.219l-8.719-6.281l-8.625,6.281l3.281-10.312L259.594,228h10.688
		L273.563,217.875z M334.406,217.875l3.281,10.219h10.781l-8.718,6.281l3.375,10.219l-8.719-6.281l-8.719,6.281l3.375-10.312
		L320.344,228h10.781L334.406,217.875z"/>
</g>
</svg>
